<?xml version="1.0" encoding="UTF-8" standalone="no"?>
<svg
   width="24"
   height="24"
   viewBox="0 0 24 24"
   version="1.1"
   id="svg9"
   sodipodi:docname="firebird-explorer-icon2.svg"
   inkscape:version="1.2.2 (732a01da63, 2022-12-09)"
   xmlns:inkscape="http://www.inkscape.org/namespaces/inkscape"
   xmlns:sodipodi="http://sodipodi.sourceforge.net/DTD/sodipodi-0.dtd"
   xmlns="http://www.w3.org/2000/svg"
   xmlns:svg="http://www.w3.org/2000/svg"
   xmlns:rdf="http://www.w3.org/1999/02/22-rdf-syntax-ns#"
   xmlns:x="adobe:ns:meta/">
  <sodipodi:namedview
     id="namedview11"
     pagecolor="#ffffff"
     bordercolor="#000000"
     borderopacity="0.25"
     inkscape:showpageshadow="2"
     inkscape:pageopacity="0.0"
     inkscape:pagecheckerboard="0"
     inkscape:deskcolor="#d1d1d1"
     showgrid="false"
     inkscape:zoom="10.3625"
     inkscape:cx="17.370326"
     inkscape:cy="28.950543"
     inkscape:window-width="1920"
     inkscape:window-height="1009"
     inkscape:window-x="1912"
     inkscape:window-y="-8"
     inkscape:window-maximized="1"
     inkscape:current-layer="svg9" />
  <metadata
     id="metadata2">
<?xpacket begin="﻿" id="W5M0MpCehiHzreSzNTczkc9d"?>    <x:xmpmeta
       x:xmptk="Adobe XMP Core 5.6-c142 79.160924, 2017/07/13-01:06:39        ">
      <rdf:RDF>
        <rdf:Description
           rdf:about="" />
      </rdf:RDF>
    </x:xmpmeta>
<?xpacket end="w"?>  </metadata>
  <defs
     id="defs6">
    <style
       id="style4">
      .cls-1 {
        fill: #d7dae0;
        fill-rule: evenodd;
      }
    </style>
  </defs>
  <path
     id="fireird-icon"
     class="cls-1"
     d="m 8.998691,6.4522312 a 0.72790413,0.72759248 0 0 0 -0.03404,-0.168137 c -0.02303,-0.09107 -0.01302,-0.192156 -0.03304,-0.278226 a 0.68685314,0.68655907 0 0 1 0.008,-0.236193 l 0.008,-0.13511 a 0.7709576,0.77062753 0 0 1 0.244304,-0.438357 1.5579351,1.5572681 0 0 1 1.214508,-0.05905 c 0.100125,0.03703 0.200249,0.100082 0.295367,0.13511 0.384478,0.151123 0.779969,0.276225 1.163445,0.421343 0.545678,0.206168 1.119391,0.33127 1.695106,0.500408 0.120149,0.03603 0.229285,0.03303 0.35444,0.06705 a 1.9023629,1.9015484 0 0 0 1.576959,-0.109088 0.61976981,0.61950447 0 0 0 0.06708,-0.379309 h 0.02103 a 1.3236441,1.3230774 0 0 0 0.06708,0.236192 0.87708943,0.87671391 0 0 1 -0.05907,0.6145 0.96419763,0.96378482 0 0 1 -0.901119,0.227185 2.8705655,2.8693365 0 0 0 -1.492854,0.03403 1.0262747,1.0258353 0 0 0 -0.200249,0.152124 0.03003731,0.03002445 0 0 0 0.008,0.01701 1.4808393,1.4802053 0 0 0 0.286356,0.143116 c 0.178221,0.100082 0.366455,0.187153 0.53967,0.29424 a 5.2585316,5.2562802 0 0 1 1.61,1.331084 1.9774562,1.9766096 0 0 1 0.278345,0.623508 c 0.02103,0.07606 0,0.137111 0.01702,0.219178 a 1.7281465,1.7274066 0 0 1 0,0.5894798 c -0.01902,0.08707 0,0.153125 -0.01702,0.236192 -0.04706,0.191156 -0.0781,0.39232 -0.135168,0.56446 a 4.3604161,4.3585492 0 0 1 -0.200248,0.58948 10.556112,10.551592 0 0 1 -0.961194,1.591296 4.6657954,4.6637978 0 0 0 -1.028277,1.549262 1.3516789,1.3511002 0 0 0 0.01702,0.665541 1.3666976,1.3661124 0 0 0 0.901119,0.900734 1.4928543,1.4922151 0 0 0 0.648806,0.13511 c 0.183228,-0.04103 0.400497,-0.007 0.581722,-0.05004 0.116145,-0.02702 0.247308,-0.02002 0.370461,-0.05004 0.300373,-0.07306 0.600746,-0.100081 0.885099,-0.18515 a 7.3521321,7.3489843 0 0 0 1.323644,-0.500408 5.7070888,5.7046453 0 0 0 2.002487,-1.743419 7.6625176,7.659237 0 0 0 0.995237,-2.201793 c 0.111138,-0.365298 0.143177,-0.758618 0.236293,-1.144933 0.04305,-0.178145 0.02804,-0.366298 0.06708,-0.539439 V 9.9560782 c 0.03504,-0.158128 0.01402,-0.359292 0.05006,-0.522425 v -0.210171 a 3.8197445,3.8181091 0 0 0 0.01702,-0.715583 5.4167281,5.414409 0 0 0 -0.387482,-1.937578 c -0.06107,-0.162132 -0.09412,-0.320261 -0.16921,-0.471384 a 12.485508,12.480163 0 0 0 -0.589736,-1.128913 9.2114415,9.2074977 0 0 0 -2.47908,-2.560085 C 17.541302,2.1847562 17.202881,1.9785884 16.866463,1.769418 16.530045,1.5602477 16.200636,1.4211344 15.854206,1.2469926 A 17.739034,17.731439 0 0 0 14.168112,0.52240262 C 13.994897,0.45634882 13.829691,0.42232112 13.653472,0.35426572 13.41818,0.26619402 13.170873,0.20414342 12.919561,0.11807332 A 1.4888493,1.4882119 0 0 0 12.582142,0.01799192 V 9.7792132e-4 A 1.8773318,1.8765281 0 0 1 13.003665,0.03500592 h 0.118147 c 0.06408,0.014011 0.165205,0.019016 0.227282,0.034028 0.0831,0.019016 0.145181,0 0.227283,0.017014 0.187232,0.044036 0.400497,0.055045 0.581722,0.1000815 0.05707,0.015012 0.09512,0 0.152189,0.017014 0.173215,0.04904 0.360448,0.066054 0.539671,0.1180962 0.257319,0.075061 0.533662,0.1271035 0.783973,0.2191785 0.210262,0.077063 0.436543,0.1581287 0.640796,0.2361923 0.16921,0.064052 0.330411,0.1070872 0.488607,0.1851508 0.279347,0.13811238 0.569708,0.25720938 0.843047,0.40032598 0.3214,0.1731409 0.637793,0.362295 0.944173,0.5554523 0.306381,0.1931577 0.582724,0.4143377 0.868078,0.6235077 0.07409,0.05404 0.138172,0.131107 0.211263,0.185151 a 7.6454964,7.6422231 0 0 1 1.106374,1.047853 c 0.21727,0.244199 0.461573,0.476388 0.657817,0.741604 a 15.085738,15.079279 0 0 1 1.163445,1.760434 13.216416,13.210758 0 0 1 0.741922,1.659351 c 0.08911,0.236192 0.131163,0.472385 0.219272,0.715583 0.09312,0.259211 0.140174,0.557454 0.219272,0.833678 0.03104,0.108088 0.02203,0.200163 0.05006,0.311254 0.03504,0.137112 0.05006,0.3062488 0.0841,0.4463628 0.01802,0.07406 0,0.127104 0.01702,0.200163 0.02403,0.105086 0.02603,0.246201 0.05106,0.353288 v 0.118096 c 0.01302,0.06105 0,0.143117 0.01702,0.219179 a 3.4102358,3.4087758 0 0 1 0.03304,0.667543 3.8437743,3.8421287 0 0 1 -0.01702,0.72459 c -0.02303,0.100082 0,0.222181 -0.01702,0.311254 v 0.143116 c -0.02503,0.111091 -0.006,0.241197 -0.03404,0.362295 -0.05507,0.238194 -0.04005,0.500408 -0.100124,0.741604 -0.113141,0.437356 -0.166207,0.894729 -0.300373,1.30106 -0.02003,0.05805 -0.01402,0.100081 -0.03404,0.16013 a 14.742311,14.736 0 0 1 -0.927151,2.248831 11.926814,11.921708 0 0 1 -4.966169,4.867964 13.204401,13.198748 0 0 1 -1.62702,0.690563 c -0.448558,0.168137 -0.935162,0.250203 -1.41676,0.387315 -0.145181,0.04203 -0.300373,0.04804 -0.438545,0.08407 -0.18523,0.04804 -0.383476,0.04203 -0.564701,0.08407 -0.0821,0.01901 -0.144179,0 -0.227283,0.01701 -0.135168,0.03002 -0.308383,0.02002 -0.446554,0.05004 h -0.156194 c -0.107133,0.02302 -0.247308,-0.009 -0.371462,0.01701 a 2.083588,2.082696 0 0 1 -0.606747,-0.03403 c -0.165206,-0.03803 -0.310386,-0.02302 -0.463576,-0.06705 A 8.0159566,8.0125246 0 0 1 9.9598855,23.452072 C 9.8847955,23.415042 9.813703,23.404032 9.740612,23.368002 9.492304,23.243901 9.232982,23.125804 8.998691,22.980686 8.7644,22.835568 8.508081,22.674437 8.27379,22.509302 8.173666,22.438242 8.073542,22.34617 7.978423,22.27311 7.883303,22.20005 7.778175,22.114981 7.67805,22.036918 L 7.61898,21.969858 A 1.0573133,1.0568606 0 0 1 7.450768,21.826742 C 7.235501,21.548515 6.98519,21.297311 6.792951,20.993063 A 8.8309689,8.827188 0 0 1 6.016987,19.375746 C 5.946897,19.187593 5.916863,19.006445 5.848778,18.811286 5.735638,18.469007 5.674562,18.083694 5.578442,17.716395 5.535392,17.55126 5.533382,17.37912 5.494342,17.215987 5.433262,16.962781 5.450282,16.692561 5.394218,16.441356 v -0.556453 a 4.2652979,4.2634718 0 0 1 0.168209,-1.389131 4.9771821,4.9750512 0 0 1 2.774446,-2.92238 9.4287114,9.4246746 0 0 1 0.901119,-0.370301 c 0.107133,-0.04103 0.218271,-0.05104 0.320398,-0.100082 a 4.9060938,4.9039934 0 0 0 0.749931,-0.471384 1.3546826,1.3541027 0 0 0 0.531661,-0.7005698 1.0172635,1.016828 0 0 0 -0.441553,-0.922751 c -0.07409,-0.05504 -0.130161,-0.13511 -0.211262,-0.185151 a 2.8845829,2.8833479 0 0 0 -0.758943,-0.295241 1.3336565,1.3330855 0 0 0 -0.37046,0.008 c -0.125155,0.02802 -0.243302,0 -0.36245,0.02502 a 2.4129972,2.4119641 0 0 0 -0.54768,0.168137 0.90111928,0.90073347 0 0 0 -0.400498,0.421343 c -0.02503,0.05605 -0.02503,0.118096 -0.05106,0.168137 A 2.5431588,2.54207 0 0 1 6.394459,8.3247402 0.97020509,0.96978971 0 0 1 6.694832,7.2548692 3.5764423,3.5749111 0 0 1 7.327618,6.7414512 1.495858,1.4952176 0 0 1 7.5549,6.5893272 4.3734322,4.3715598 0 0 1 8.998694,6.4522152 Z m 1.981461,-6.42623278 0.04205,0.00801 a 0.03003731,0.03002445 0 0 1 -0.01702,0.00801 0.95518643,0.95477748 0 0 1 -0.210261,0.042034 c -0.151188,0.044036 -0.315392,0.069056 -0.472587,0.1180962 a 11.686516,11.681512 0 0 0 -1.201493,0.400326 c -0.126156,0.055045 -0.249309,0.075061 -0.371461,0.13511 C 8.414965,0.90371992 8.063528,1.0378291 7.737123,1.2089685 A 14.91853,14.912143 0 0 0 6.26129,2.1016952 c -0.376468,0.263215 -0.71589,0.568463 -1.079341,0.841686 -0.0811,0.06105 -0.174216,0.157128 -0.253315,0.227185 l -0.09311,0.100081 a 2.6813305,2.6801825 0 0 0 -0.270336,0.261213 2.5962248,2.5951132 0 0 0 -0.253315,0.261213 l -0.100124,0.09308 c -0.0821,0.108088 -0.189235,0.200163 -0.270336,0.300244 -0.285354,0.379309 -0.600746,0.738601 -0.860068,1.145933 a 11.688518,11.683514 0 0 0 -1.06232,2.138742 c -0.14518,0.383312 -0.222276,0.800652 -0.337419,1.212987 -0.05507,0.200163 -0.05507,0.400326 -0.100124,0.600489 l -0.01902,0.224183 a 8.7468644,8.7431196 0 0 0 -0.05907,0.9177468 3.3701861,3.3687432 0 0 0 0.02503,0.757617 q 0.008,0.156127 0.01702,0.311254 c 0.02003,0.08807 0.01101,0.189154 0.03404,0.286233 0.04906,0.208169 0.06508,0.44236 0.118147,0.639521 0.03304,0.1231 0.03104,0.23419 0.06708,0.354288 0.106132,0.348284 0.178222,0.700571 0.300374,1.035844 a 14.553076,14.546846 0 0 0 1.686094,3.24264 c 0.278346,0.400326 0.58773,0.768626 0.877089,1.15394 0.100125,0.134109 0.226281,0.252205 0.328408,0.387315 0.04005,0.05304 0.108134,0.09408 0.143178,0.151123 a 1.0162623,1.0158272 0 0 1 0.03404,0.244199 c 0.05106,0.200163 0.06909,0.413337 0.135168,0.606494 a 6.7423747,6.739488 0 0 0 0.589733,1.381125 c 0.215267,0.346282 0.451561,0.666542 0.691859,0.985802 0.13717,0.182149 0.317394,0.33127 0.455566,0.513418 l 0.200249,0.194158 c 0.134166,0.13411 0.263327,0.278227 0.400497,0.400326 a 0.8901056,0.88972451 0 0 1 0.168209,0.151124 H 7.760153 A 0.94717648,0.94677096 0 0 0 7.498829,23.087789 C 7.422739,23.047759 7.339631,22.987707 7.262535,22.952678 7.127367,22.884628 6.991198,22.852597 6.862038,22.784542 A 14.599134,14.592883 0 0 1 5.344152,21.925842 12.014924,12.00978 0 0 1 1.862828,18.377953 12.437449,12.432124 0 0 1 0.74944504,16.138129 c -0.14518,-0.382311 -0.248308,-0.785639 -0.371461,-1.186966 -0.06708,-0.22118 -0.09312,-0.453369 -0.152189,-0.673549 l -0.01702,-0.143116 c -0.04506,-0.177144 -0.05707,-0.389317 -0.100125,-0.572466 -0.02002,-0.08207 0,-0.144118 -0.01702,-0.227185 -0.01402,-0.06105 -0.02003,-0.158129 -0.03404,-0.219179 v -0.128104 c -0.01302,-0.06005 0,-0.144118 -0.01702,-0.219179 -0.01702,-0.07506 0.006,-0.207168 -0.01702,-0.311253 a 2.1176303,2.1167237 0 0 1 -0.01702,-0.400326 3.0918404,3.0905166 0 0 1 0.01702,-0.581474 v -0.214185 c 0.02103,-0.09408 0.01302,-0.228186 0.03404,-0.320261 l 0.01702,-0.286233 c 0.05707,-0.243198 0.05907,-0.517421 0.118147,-0.7496098 0.02303,-0.09007 0.01101,-0.156127 0.03404,-0.244199 0.04105,-0.157128 0.07209,-0.337275 0.118147,-0.488398 0.03304,-0.110089 0.03104,-0.200163 0.06708,-0.311253 0.06909,-0.200163 0.110137,-0.418341 0.18523,-0.623508 0.05807,-0.15913 0.127158,-0.333271 0.18523,-0.488398 0.05807,-0.155126 0.08511,-0.278226 0.15218895,-0.412335 0.06708,-0.13411 0.12715801,-0.300245 0.20024901,-0.45437 0.218271,-0.432353 0.438545,-0.862703 0.69186,-1.263029 a 12.085011,12.079837 0 0 1 3.74365,-3.7650659 15.657448,15.650744 0 0 1 2.14166,-1.07787768 c 0.08911,-0.039032 0.170211,-0.050041 0.261324,-0.084068 0.295367,-0.1110904 0.620771,-0.2071687 0.936163,-0.3002445 0.347432,-0.1050855 0.718893,-0.1441173 1.0793415,-0.2361923 0.1091345,-0.028023 0.2212745,-0.027022 0.3203975,-0.050041 0.165205,-0.039032 0.337419,-0.023019 0.500622,-0.059048 a 0.65080837,0.65052973 0 0 0 0.170212,-0.0210174 z M 10.24624,5.9638332 a 0.40850741,0.40833251 0 0 0 -0.160199,0.08407 0.62077106,0.62050528 0 0 0 -0.008,0.421343 1.5499252,1.5492616 0 0 0 0.400498,0.008 h 0.852058 l 0.008,-0.02502 a 1.0142598,1.0138256 0 0 1 -0.219272,-0.143111 1.9664425,1.9656006 0 0 0 -0.872083,-0.345282 z"
     inkscape:highlight-color="#d7dae0"
     style="stroke-width:1.00103" />
</svg>
